<mxfile host="app.diagrams.net" modified="2021-06-30T03:40:56.800Z" agent="5.0 (Macintosh; Intel Mac OS X 10_15_7) AppleWebKit/537.36 (KHTML, like Gecko) Chrome/91.0.4472.114 Safari/537.36" etag="Q4IDBWkHV6cy6SPlg89L" version="14.8.2" type="github">
  <diagram name="Page-1" id="b5b7bab2-c9e2-2cf4-8b2a-24fd1a2a6d21">
    <mxGraphModel dx="1522" dy="1067" grid="1" gridSize="10" guides="1" tooltips="1" connect="1" arrows="1" fold="1" page="1" pageScale="1" pageWidth="827" pageHeight="1169" background="none" math="0" shadow="0">
      <root>
        <mxCell id="0" />
        <mxCell id="1" parent="0" />
        <mxCell id="6e0c8c40b5770093-72" value="" style="shape=folder;fontStyle=1;spacingTop=10;tabWidth=194;tabHeight=22;tabPosition=left;html=1;rounded=0;shadow=0;comic=0;labelBackgroundColor=none;strokeWidth=1;fillColor=none;fontFamily=Verdana;fontSize=10;align=center;" parent="1" vertex="1">
          <mxGeometry x="300" y="20" width="1003.5" height="900" as="geometry" />
        </mxCell>
        <mxCell id="ukUrqcrIVXE2Zas6za7H-4" value="" style="shape=folder;fontStyle=1;spacingTop=10;tabWidth=123;tabHeight=24;tabPosition=left;html=1;rounded=0;shadow=0;comic=0;labelBackgroundColor=none;strokeColor=#000000;strokeWidth=1;fillColor=#ffffff;fontFamily=Verdana;fontSize=10;fontColor=#000000;align=center;" vertex="1" parent="1">
          <mxGeometry x="370" y="90" width="910" height="130" as="geometry" />
        </mxCell>
        <mxCell id="ukUrqcrIVXE2Zas6za7H-1" value="" style="shape=folder;fontStyle=1;spacingTop=10;tabWidth=123;tabHeight=24;tabPosition=left;html=1;rounded=0;shadow=0;comic=0;labelBackgroundColor=none;strokeWidth=1;fontFamily=Verdana;fontSize=10;align=center;" vertex="1" parent="1">
          <mxGeometry x="375" y="610" width="890" height="220" as="geometry" />
        </mxCell>
        <mxCell id="6e0c8c40b5770093-6" value="" style="group" parent="1" vertex="1" connectable="0">
          <mxGeometry x="440" y="130" width="130" height="70" as="geometry" />
        </mxCell>
        <mxCell id="6e0c8c40b5770093-4" value="LiveApp(主播端App)" style="shape=folder;fontStyle=1;spacingTop=10;tabWidth=50;tabHeight=17;tabPosition=left;html=1;rounded=0;shadow=0;comic=0;labelBackgroundColor=none;strokeWidth=1;fontFamily=Verdana;fontSize=10;align=center;" parent="6e0c8c40b5770093-6" vertex="1">
          <mxGeometry width="130" height="70" as="geometry" />
        </mxCell>
        <mxCell id="6e0c8c40b5770093-7" value="" style="group" parent="1" vertex="1" connectable="0">
          <mxGeometry x="751" y="120" width="130" height="70" as="geometry" />
        </mxCell>
        <mxCell id="6e0c8c40b5770093-8" value="PlayApp(看播App)" style="shape=folder;fontStyle=1;spacingTop=10;tabWidth=50;tabHeight=17;tabPosition=left;html=1;rounded=0;shadow=0;comic=0;labelBackgroundColor=none;strokeWidth=1;fontFamily=Verdana;fontSize=10;align=center;" parent="6e0c8c40b5770093-7" vertex="1">
          <mxGeometry width="130" height="70" as="geometry" />
        </mxCell>
        <mxCell id="ukUrqcrIVXE2Zas6za7H-20" style="edgeStyle=orthogonalEdgeStyle;rounded=0;orthogonalLoop=1;jettySize=auto;html=1;exitX=0.5;exitY=1;exitDx=0;exitDy=0;exitPerimeter=0;entryX=0.503;entryY=0.136;entryDx=0;entryDy=0;entryPerimeter=0;" edge="1" parent="1" source="6e0c8c40b5770093-47" target="ukUrqcrIVXE2Zas6za7H-1">
          <mxGeometry relative="1" as="geometry" />
        </mxCell>
        <mxCell id="6e0c8c40b5770093-47" value="" style="shape=folder;fontStyle=1;spacingTop=10;tabWidth=123;tabHeight=24;tabPosition=left;html=1;rounded=0;shadow=0;comic=0;labelBackgroundColor=none;strokeWidth=1;fontFamily=Verdana;fontSize=10;align=center;" parent="1" vertex="1">
          <mxGeometry x="375" y="450" width="895" height="130" as="geometry" />
        </mxCell>
        <mxCell id="6e0c8c40b5770093-52" value="" style="group" parent="1" vertex="1" connectable="0">
          <mxGeometry x="430" y="739.9994795496323" width="130" height="70" as="geometry" />
        </mxCell>
        <mxCell id="6e0c8c40b5770093-53" value="IMService" style="shape=folder;fontStyle=1;spacingTop=10;tabWidth=50;tabHeight=17;tabPosition=left;html=1;rounded=0;shadow=0;comic=0;labelBackgroundColor=none;strokeWidth=1;fontFamily=Verdana;fontSize=10;align=center;" parent="6e0c8c40b5770093-52" vertex="1">
          <mxGeometry width="130" height="70" as="geometry" />
        </mxCell>
        <mxCell id="6e0c8c40b5770093-54" value="" style="triangle;whiteSpace=wrap;html=1;rounded=0;shadow=0;comic=0;labelBackgroundColor=none;strokeWidth=1;fontFamily=Verdana;fontSize=10;align=center;rotation=-90;" parent="6e0c8c40b5770093-52" vertex="1">
          <mxGeometry x="100" y="25" width="15" height="20" as="geometry" />
        </mxCell>
        <mxCell id="6e0c8c40b5770093-55" value="" style="group" parent="1" vertex="1" connectable="0">
          <mxGeometry x="711.5" y="749.9994795496323" width="130" height="70" as="geometry" />
        </mxCell>
        <mxCell id="6e0c8c40b5770093-56" value="Agora" style="shape=folder;fontStyle=1;spacingTop=10;tabWidth=50;tabHeight=17;tabPosition=left;html=1;rounded=0;shadow=0;comic=0;labelBackgroundColor=none;strokeWidth=1;fontFamily=Verdana;fontSize=10;align=center;" parent="6e0c8c40b5770093-55" vertex="1">
          <mxGeometry width="130" height="70" as="geometry" />
        </mxCell>
        <mxCell id="6e0c8c40b5770093-57" value="" style="triangle;whiteSpace=wrap;html=1;rounded=0;shadow=0;comic=0;labelBackgroundColor=none;strokeWidth=1;fontFamily=Verdana;fontSize=10;align=center;rotation=-90;" parent="6e0c8c40b5770093-55" vertex="1">
          <mxGeometry x="100" y="25" width="15" height="20" as="geometry" />
        </mxCell>
        <mxCell id="6e0c8c40b5770093-73" value="&amp;lt;&amp;lt;model&amp;gt;&amp;gt;" style="text;html=1;align=left;verticalAlign=top;spacingTop=-4;fontSize=10;fontFamily=Verdana" parent="1" vertex="1">
          <mxGeometry x="337.5" y="54.5" width="130" height="20" as="geometry" />
        </mxCell>
        <mxCell id="ukUrqcrIVXE2Zas6za7H-5" value="" style="group" vertex="1" connectable="0" parent="1">
          <mxGeometry x="1060" y="130" width="130" height="70" as="geometry" />
        </mxCell>
        <mxCell id="ukUrqcrIVXE2Zas6za7H-6" value="JiaduiApp(佳对)" style="shape=folder;fontStyle=1;spacingTop=10;tabWidth=50;tabHeight=17;tabPosition=left;html=1;rounded=0;shadow=0;comic=0;labelBackgroundColor=none;strokeWidth=1;fontFamily=Verdana;fontSize=10;align=center;" vertex="1" parent="ukUrqcrIVXE2Zas6za7H-5">
          <mxGeometry width="130" height="70" as="geometry" />
        </mxCell>
        <mxCell id="ukUrqcrIVXE2Zas6za7H-9" value="" style="group" vertex="1" connectable="0" parent="1">
          <mxGeometry x="990" y="709.9994795496323" width="130" height="70" as="geometry" />
        </mxCell>
        <mxCell id="ukUrqcrIVXE2Zas6za7H-10" value="Core(通用库)" style="shape=folder;fontStyle=1;spacingTop=10;tabWidth=50;tabHeight=17;tabPosition=left;html=1;rounded=0;shadow=0;comic=0;labelBackgroundColor=none;strokeWidth=1;fontFamily=Verdana;fontSize=10;align=center;" vertex="1" parent="ukUrqcrIVXE2Zas6za7H-9">
          <mxGeometry width="130" height="70" as="geometry" />
        </mxCell>
        <mxCell id="ukUrqcrIVXE2Zas6za7H-15" style="edgeStyle=orthogonalEdgeStyle;rounded=0;orthogonalLoop=1;jettySize=auto;html=1;exitX=0.5;exitY=1;exitDx=0;exitDy=0;exitPerimeter=0;entryX=0;entryY=0;entryDx=90;entryDy=17;entryPerimeter=0;" edge="1" parent="1" source="ukUrqcrIVXE2Zas6za7H-12" target="6e0c8c40b5770093-53">
          <mxGeometry relative="1" as="geometry">
            <Array as="points">
              <mxPoint x="1188" y="610" />
              <mxPoint x="520" y="610" />
            </Array>
          </mxGeometry>
        </mxCell>
        <mxCell id="ukUrqcrIVXE2Zas6za7H-12" value="IM(带业务，私信，存储等)" style="shape=folder;fontStyle=1;spacingTop=10;tabWidth=50;tabHeight=17;tabPosition=left;html=1;rounded=0;shadow=0;comic=0;labelBackgroundColor=none;strokeWidth=1;fontFamily=Verdana;fontSize=10;align=center;" vertex="1" parent="1">
          <mxGeometry x="1110" y="490" width="155" height="70" as="geometry" />
        </mxCell>
        <mxCell id="ukUrqcrIVXE2Zas6za7H-16" style="edgeStyle=orthogonalEdgeStyle;rounded=0;orthogonalLoop=1;jettySize=auto;html=1;exitX=0.5;exitY=1;exitDx=0;exitDy=0;exitPerimeter=0;entryX=0.638;entryY=0.243;entryDx=0;entryDy=0;entryPerimeter=0;" edge="1" parent="1" source="ukUrqcrIVXE2Zas6za7H-13" target="6e0c8c40b5770093-56">
          <mxGeometry relative="1" as="geometry" />
        </mxCell>
        <mxCell id="ukUrqcrIVXE2Zas6za7H-13" value="LinkMicSDK" style="shape=folder;fontStyle=1;spacingTop=10;tabWidth=50;tabHeight=17;tabPosition=left;html=1;rounded=0;shadow=0;comic=0;labelBackgroundColor=none;strokeWidth=1;fontFamily=Verdana;fontSize=10;align=center;" vertex="1" parent="1">
          <mxGeometry x="700" y="660" width="112" height="70" as="geometry" />
        </mxCell>
        <mxCell id="ukUrqcrIVXE2Zas6za7H-18" value="UserService(用户服务)" style="shape=folder;fontStyle=1;spacingTop=10;tabWidth=50;tabHeight=17;tabPosition=left;html=1;rounded=0;shadow=0;comic=0;labelBackgroundColor=none;strokeColor=#000000;strokeWidth=1;fillColor=#ffffff;fontFamily=Verdana;fontSize=10;fontColor=#000000;align=center;" vertex="1" parent="1">
          <mxGeometry x="410" y="490" width="150" height="70" as="geometry" />
        </mxCell>
        <mxCell id="ukUrqcrIVXE2Zas6za7H-19" value="LinkMicService(连麦服务)" style="shape=folder;fontStyle=1;spacingTop=10;tabWidth=50;tabHeight=17;tabPosition=left;html=1;rounded=0;shadow=0;comic=0;labelBackgroundColor=none;strokeColor=#000000;strokeWidth=1;fillColor=#ffffff;fontFamily=Verdana;fontSize=10;fontColor=#000000;align=center;" vertex="1" parent="1">
          <mxGeometry x="570" y="490" width="166.5" height="70" as="geometry" />
        </mxCell>
        <mxCell id="ukUrqcrIVXE2Zas6za7H-21" value="AccountService(账号)" style="shape=folder;fontStyle=1;spacingTop=10;tabWidth=50;tabHeight=17;tabPosition=left;html=1;rounded=0;shadow=0;comic=0;labelBackgroundColor=none;strokeColor=#000000;strokeWidth=1;fillColor=#ffffff;fontFamily=Verdana;fontSize=10;fontColor=#000000;align=center;" vertex="1" parent="1">
          <mxGeometry x="761.5" y="490" width="150" height="70" as="geometry" />
        </mxCell>
        <mxCell id="ukUrqcrIVXE2Zas6za7H-22" value="FeedService(feed流)" style="shape=folder;fontStyle=1;spacingTop=10;tabWidth=50;tabHeight=17;tabPosition=left;html=1;rounded=0;shadow=0;comic=0;labelBackgroundColor=none;strokeColor=#000000;strokeWidth=1;fillColor=#ffffff;fontFamily=Verdana;fontSize=10;fontColor=#000000;align=center;" vertex="1" parent="1">
          <mxGeometry x="940" y="490" width="160" height="70" as="geometry" />
        </mxCell>
        <mxCell id="ukUrqcrIVXE2Zas6za7H-30" style="edgeStyle=orthogonalEdgeStyle;rounded=0;orthogonalLoop=1;jettySize=auto;html=1;exitX=0.5;exitY=1;exitDx=0;exitDy=0;exitPerimeter=0;entryX=0.495;entryY=0.192;entryDx=0;entryDy=0;entryPerimeter=0;" edge="1" parent="1" source="ukUrqcrIVXE2Zas6za7H-23" target="6e0c8c40b5770093-47">
          <mxGeometry relative="1" as="geometry" />
        </mxCell>
        <mxCell id="ukUrqcrIVXE2Zas6za7H-23" value="" style="shape=folder;fontStyle=1;spacingTop=10;tabWidth=123;tabHeight=24;tabPosition=left;html=1;rounded=0;shadow=0;comic=0;labelBackgroundColor=none;strokeWidth=1;fontFamily=Verdana;fontSize=10;align=center;" vertex="1" parent="1">
          <mxGeometry x="370" y="250" width="895" height="160" as="geometry" />
        </mxCell>
        <mxCell id="ukUrqcrIVXE2Zas6za7H-24" value="BaseUI" style="shape=folder;fontStyle=1;spacingTop=10;tabWidth=50;tabHeight=17;tabPosition=left;html=1;rounded=0;shadow=0;comic=0;labelBackgroundColor=none;strokeColor=#000000;strokeWidth=1;fillColor=#ffffff;fontFamily=Verdana;fontSize=10;fontColor=#000000;align=center;" vertex="1" parent="1">
          <mxGeometry x="761.5" y="310" width="112" height="70" as="geometry" />
        </mxCell>
        <mxCell id="ukUrqcrIVXE2Zas6za7H-28" style="edgeStyle=orthogonalEdgeStyle;rounded=0;orthogonalLoop=1;jettySize=auto;html=1;exitX=0;exitY=0;exitDx=112;exitDy=43.5;exitPerimeter=0;" edge="1" parent="1" source="ukUrqcrIVXE2Zas6za7H-25" target="ukUrqcrIVXE2Zas6za7H-24">
          <mxGeometry relative="1" as="geometry" />
        </mxCell>
        <mxCell id="ukUrqcrIVXE2Zas6za7H-25" value="LiveUI(主播)" style="shape=folder;fontStyle=1;spacingTop=10;tabWidth=50;tabHeight=17;tabPosition=left;html=1;rounded=0;shadow=0;comic=0;labelBackgroundColor=none;strokeColor=#000000;strokeWidth=1;fillColor=#ffffff;fontFamily=Verdana;fontSize=10;fontColor=#000000;align=center;" vertex="1" parent="1">
          <mxGeometry x="449" y="310" width="112" height="70" as="geometry" />
        </mxCell>
        <mxCell id="ukUrqcrIVXE2Zas6za7H-29" style="edgeStyle=orthogonalEdgeStyle;rounded=0;orthogonalLoop=1;jettySize=auto;html=1;exitX=0;exitY=0;exitDx=0;exitDy=30.25;exitPerimeter=0;entryX=0;entryY=0;entryDx=112;entryDy=30.25;entryPerimeter=0;" edge="1" parent="1" source="ukUrqcrIVXE2Zas6za7H-26" target="ukUrqcrIVXE2Zas6za7H-24">
          <mxGeometry relative="1" as="geometry" />
        </mxCell>
        <mxCell id="ukUrqcrIVXE2Zas6za7H-26" value="PlayUI(看播)" style="shape=folder;fontStyle=1;spacingTop=10;tabWidth=50;tabHeight=17;tabPosition=left;html=1;rounded=0;shadow=0;comic=0;labelBackgroundColor=none;strokeColor=#000000;strokeWidth=1;fillColor=#ffffff;fontFamily=Verdana;fontSize=10;fontColor=#000000;align=center;" vertex="1" parent="1">
          <mxGeometry x="1069" y="320" width="112" height="70" as="geometry" />
        </mxCell>
        <mxCell id="ukUrqcrIVXE2Zas6za7H-31" style="edgeStyle=orthogonalEdgeStyle;rounded=0;orthogonalLoop=1;jettySize=auto;html=1;exitX=0.5;exitY=1;exitDx=0;exitDy=0;exitPerimeter=0;" edge="1" parent="1" source="6e0c8c40b5770093-4" target="ukUrqcrIVXE2Zas6za7H-25">
          <mxGeometry relative="1" as="geometry" />
        </mxCell>
        <mxCell id="ukUrqcrIVXE2Zas6za7H-32" style="edgeStyle=orthogonalEdgeStyle;rounded=0;orthogonalLoop=1;jettySize=auto;html=1;exitX=0.5;exitY=1;exitDx=0;exitDy=0;exitPerimeter=0;" edge="1" parent="1" source="6e0c8c40b5770093-8" target="ukUrqcrIVXE2Zas6za7H-26">
          <mxGeometry relative="1" as="geometry" />
        </mxCell>
        <mxCell id="ukUrqcrIVXE2Zas6za7H-33" style="edgeStyle=orthogonalEdgeStyle;rounded=0;orthogonalLoop=1;jettySize=auto;html=1;exitX=0.5;exitY=1;exitDx=0;exitDy=0;exitPerimeter=0;" edge="1" parent="1" source="ukUrqcrIVXE2Zas6za7H-6" target="ukUrqcrIVXE2Zas6za7H-26">
          <mxGeometry relative="1" as="geometry" />
        </mxCell>
        <mxCell id="ukUrqcrIVXE2Zas6za7H-35" value="App" style="text;html=1;strokeColor=none;fillColor=none;align=center;verticalAlign=middle;whiteSpace=wrap;rounded=0;" vertex="1" parent="1">
          <mxGeometry x="374" y="90" width="40" height="20" as="geometry" />
        </mxCell>
        <mxCell id="ukUrqcrIVXE2Zas6za7H-36" value="UI层SDK" style="text;html=1;strokeColor=none;fillColor=none;align=center;verticalAlign=middle;whiteSpace=wrap;rounded=0;" vertex="1" parent="1">
          <mxGeometry x="375" y="250" width="75" height="20" as="geometry" />
        </mxCell>
        <mxCell id="ukUrqcrIVXE2Zas6za7H-37" value="业务层SDK" style="text;html=1;strokeColor=none;fillColor=none;align=center;verticalAlign=middle;whiteSpace=wrap;rounded=0;" vertex="1" parent="1">
          <mxGeometry x="376" y="450" width="75" height="20" as="geometry" />
        </mxCell>
        <mxCell id="ukUrqcrIVXE2Zas6za7H-38" value="通用SDK" style="text;html=1;strokeColor=none;fillColor=none;align=center;verticalAlign=middle;whiteSpace=wrap;rounded=0;" vertex="1" parent="1">
          <mxGeometry x="386" y="610" width="75" height="20" as="geometry" />
        </mxCell>
      </root>
    </mxGraphModel>
  </diagram>
</mxfile>
